<svg width="110" height="98" viewBox="0 0 110 98" fill="none" xmlns="http://www.w3.org/2000/svg">
<g clip-path="url(#clip0_49_2535)">
<path d="M76.9247 0.0242333C79.8819 0.369747 81.6074 3.63697 80.1532 6.04192C73.066 13.0825 65.5878 19.8321 58.263 26.6788C54.7211 29.9884 51.1843 33.3269 47.6289 36.635C41.5223 42.3178 36.9425 48.3946 27.4204 48.8765C7.56913 49.8812 -1.88554 26.8136 13.4751 15.3799C22.7225 8.49689 35.2237 10.6503 42.6176 18.7698C46.3247 22.8402 40.7456 27.9441 36.3931 24.542C35.0064 23.457 34.0189 22.0977 32.435 21.1415C25.3984 16.9013 15.8594 20.855 14.7372 28.5518C13.2712 38.6126 25.9443 44.6818 33.9886 37.9398L73.3609 1.04562C73.9995 0.548565 74.8858 0.115158 75.7216 0.0242333C76.008 -0.00759031 76.6416 -0.00910572 76.9247 0.0242333Z" fill="white"/>
<path d="M86.6338 11.2171C94.3697 10.6897 100.362 15.4557 103.154 21.7992C109.638 36.532 96.1963 51.6315 79.4118 48.4704C73.4333 47.3444 70.3986 44.5273 66.2349 40.7797C64.8633 39.5461 60.2666 35.6379 59.5942 34.3771C57.493 30.4385 62.602 26.6758 66.2888 29.3777C69.391 31.9888 72.2538 35.1454 75.3644 37.7094C84.4433 45.1941 98.2621 38.0019 95.7329 26.9137C94.7826 22.7448 90.875 17.9046 85.6801 19.6397C82.46 20.7141 79.7606 25.8559 76.6585 26.159C73.216 26.4954 70.7053 23.6025 71.9572 20.5884C72.4307 19.4457 76.5388 15.7436 77.7234 14.7707C80.192 12.7416 83.3194 11.4429 86.6338 11.2171Z" fill="white"/>
<path d="M104.311 75.2977V71.5288C104.311 71.4728 104.042 70.906 103.968 70.8242C103.464 70.2695 102.021 70.2695 101.351 70.4559C100.919 71.4909 99.3018 79.0074 98.8535 79.3044C98.7423 79.3786 98.6766 79.3802 98.5502 79.3953C97.8004 79.4847 94.855 79.4938 94.1372 79.3847C93.8524 79.3423 93.5373 79.1059 93.6013 78.8089L96.2434 70.8348L96.2889 70.365H94.1321C94.0209 70.365 93.8103 69.9846 93.7867 69.8482C93.6906 69.283 93.7041 67.3736 93.7783 66.781C93.8221 66.4371 93.9855 66.2082 94.3529 66.1052C97.5932 66.2158 101.046 65.8885 104.262 66.0855C112.108 66.5674 109.462 73.7004 109.936 78.6967L109.631 79.3438H101.806C101.6 79.2029 101.531 79.0149 101.502 78.7876C101.455 78.4179 101.459 75.8705 101.556 75.6704C101.58 75.6235 101.927 75.2961 101.956 75.2961H104.313L104.311 75.2977Z" fill="white"/>
<path d="M43.851 66.4901C44.616 65.8082 48.0585 66.043 49.0611 66.387C51.191 67.116 51.6359 69.1769 51.7471 71.0606C52.1161 77.2965 49.7351 80.0879 42.7659 79.5772C35.0198 79.0089 37.0469 71.8137 36.7925 66.7826C36.8093 66.4249 37.0705 66.1476 37.453 66.0915C37.8658 66.0324 41.2679 66.0415 41.5072 66.134C41.6605 66.1931 41.9369 66.5068 41.9166 66.6856C42.0649 68.9435 41.7026 71.444 41.9082 73.6716C41.9621 74.2581 42.0885 74.6218 42.6446 74.9415C43.7988 75.6068 46.0702 75.475 46.2303 73.952C46.3011 73.2822 46.3011 71.2803 45.9809 70.7302C45.3962 69.7255 43.7904 71.1742 43.5376 70.1119C43.4348 69.68 43.45 67.6403 43.514 67.1523C43.541 66.9402 43.691 66.631 43.851 66.4886V66.4901Z" fill="white"/>
<path d="M5.29437 66.0855C8.09993 65.9749 10.9628 66.2749 12.1642 68.9723C14.0834 73.2791 11.1161 77.7526 6.65081 79.2074C6.25146 79.3377 4.46365 79.8302 4.19573 79.7196C4.14518 79.6984 3.91602 79.4923 3.88569 79.4438C3.547 78.8861 3.92613 76.2554 3.81155 75.4568C4.45354 74.5824 5.66339 74.7051 6.34245 73.8035C6.94401 73.0048 7.25068 70.7969 5.92288 70.4832C4.34401 70.1089 2.22426 70.5681 0.625168 70.3711C0.235928 70.3241 0.117976 70.1059 0.0758506 69.7634C0.261203 67.7903 -0.163423 65.4536 0.0758506 63.5244C0.117976 63.182 0.235928 62.9652 0.625168 62.9168C1.37163 62.8258 4.00364 62.8243 4.74842 62.9168C4.91187 62.9365 5.29437 63.1304 5.29437 63.2471V66.0855Z" fill="white"/>
<path d="M55.1323 36.8957C59.1999 36.4395 61.7629 40.5448 59.2185 43.4771C58.4585 44.353 54.9419 47.7051 54.0438 48.2612C49.8464 50.8556 44.9227 45.9669 48.281 42.1723C49.0477 41.307 52.9384 37.6716 53.8281 37.2685C54.214 37.0942 54.706 36.9442 55.1323 36.8957Z" fill="white"/>
<path d="M79.8836 70.1801C79.7286 70.1392 79.4674 69.7406 79.437 69.5694C79.3444 69.0239 79.3696 67.4554 79.4269 66.872C79.4623 66.5113 79.5415 66.2779 79.9274 66.1279L91.9686 66.1355C92.0292 66.1597 92.2938 66.4052 92.3191 66.4613C92.4202 66.6886 92.4218 69.4209 92.3443 69.7391C92.1876 70.3877 91.2946 70.1195 90.7823 70.1968C89.7106 72.9427 90.5565 76.1296 90.2128 79.0195C90.0257 79.2514 89.8218 79.362 89.5152 79.3953C88.58 79.4984 86.2462 79.4847 85.2925 79.3984C85.0094 79.3726 84.8611 79.3544 84.6994 79.1119C84.7314 76.7994 84.477 74.299 84.6421 71.9925C84.6724 71.5713 84.7819 71.0439 84.8729 70.6256C84.8915 70.5423 85.1543 70.1816 84.8965 70.1816H79.8802L79.8836 70.1801Z" fill="white"/>
<path d="M57.8334 66.1052C58.7332 65.9218 61.9532 66.0309 63.0333 66.0809C72.0448 66.4992 69.2056 72.6442 69.7027 78.6937C69.669 79.0468 69.4465 79.3453 69.0539 79.3938C68.2468 79.4923 65.4379 79.4923 64.6291 79.3938C64.3156 79.3559 64.0983 79.1892 64.0781 78.8816C63.9719 76.7161 64.2381 74.4157 64.0882 72.2668C64.014 71.2015 63.8523 70.3483 62.5211 70.1847C61.5876 70.071 58.1013 70.3635 57.6076 70.0892C57.552 70.0574 57.4408 69.9498 57.4155 69.8952C57.3228 69.6997 57.3059 66.9462 57.3582 66.5901C57.3969 66.3204 57.5402 66.1628 57.8367 66.1037L57.8334 66.1052Z" fill="white"/>
<path d="M72.3802 66.1052L77.1724 66.087L77.7048 66.5234L77.7301 78.7907C77.7251 79.0574 77.4757 79.2408 77.2533 79.3711L72.3599 79.3877L71.8511 78.9301L71.8039 66.7811C71.8123 66.4583 72.0449 66.19 72.3785 66.1052H72.3802Z" fill="white"/>
<path d="M29.343 66.1052C30.7938 66.2037 32.6406 65.9067 34.0425 66.0809C34.3391 66.1173 34.4537 66.2552 34.6373 66.4598V73.4337L34.2868 73.7595H29.1745C28.8712 73.5564 28.8004 73.3549 28.7667 73.0215C28.5696 71.0424 28.9251 68.7905 28.7701 66.7811C28.7785 66.4583 29.011 66.19 29.3447 66.1052H29.343Z" fill="white"/>
<path d="M72.0078 88.9742L71.6573 95.395H68.6478C68.4204 95.2586 68.449 94.21 68.5417 94.0872L69.8375 93.9872L70.0026 93.7675C70.0363 92.1657 69.8796 90.5533 70.2031 88.9757C70.1576 88.9333 69.4701 89.0227 69.2662 88.9606C68.8905 88.8439 68.904 87.6937 69.1988 87.5331C69.3909 87.427 73.1519 87.4482 73.6675 87.4846C74.9448 87.5725 76.2911 88.0513 76.8034 89.2288C77.2111 90.1668 77.2819 93.919 77.1302 94.9828C77.0965 95.2177 77.0477 95.3465 76.7713 95.395C76.495 95.4435 75.3037 95.4693 75.1689 95.2116C74.9077 93.7068 75.3593 91.8065 75.0947 90.3487C75.0071 89.8607 74.6701 89.444 74.2067 89.2197C74.1208 89.1788 73.5984 88.9788 73.5647 88.9788H72.0095L72.0078 88.9742Z" fill="white"/>
<path d="M16.68 62.9228H20.0905L20.3332 63.4214C19.8782 65.199 19.8631 67.2402 19.4132 68.9935C19.2885 69.4815 19.0526 69.8558 18.4914 69.9073C17.5731 69.9922 15.0506 70.0149 14.166 69.9073C13.6116 69.8391 13.6773 69.5058 13.7885 69.083C14.0851 67.957 15.514 64.6686 16.1088 63.6063C16.2672 63.3229 16.4104 63.1289 16.6784 62.9259L16.68 62.9228Z" fill="white"/>
<path d="M23.5027 62.9228H26.9132L27.1558 63.4214C26.7009 65.199 26.6857 67.2402 26.2358 68.9935C26.1111 69.4815 25.8752 69.8558 25.3141 69.9073C24.3958 69.9922 21.8733 70.0149 20.9887 69.9073C20.4343 69.8391 20.5 69.5058 20.6112 69.083C20.9078 67.957 22.3367 64.6686 22.9315 63.6063C23.0899 63.3229 23.2331 63.1289 23.501 62.9259L23.5027 62.9228Z" fill="white"/>
<path d="M13.0421 93.9281C14.4457 93.4932 16.6851 94.4661 17.4198 92.8234C17.7416 92.102 17.7534 90.6215 17.3726 89.9138C16.6093 88.4908 14.3412 89.3637 13.0421 88.9515C12.8618 88.7848 12.8567 87.7952 13.0084 87.6149C13.1011 87.5028 13.2274 87.4967 13.3639 87.48C14.0228 87.3997 15.5764 87.4361 16.2655 87.4967C18.2994 87.674 19.3862 88.8303 19.5429 90.6912C19.7283 92.8931 19.1789 95.0813 16.4526 95.3677C15.8173 95.4344 13.8442 95.492 13.2729 95.3905C13.1685 95.3723 13.0792 95.3435 13.0101 95.2632C12.8567 95.0813 12.8652 94.0933 13.0438 93.9266L13.0421 93.9281Z" fill="white"/>
<path d="M101.125 88.953C100.946 88.7878 100.938 87.7983 101.091 87.6164L101.354 87.4891C104.404 87.7195 108.586 86.3814 108.923 90.4184C109.136 92.9461 107.804 94.7297 105.189 95.4193C104.825 95.5147 104.315 95.7587 104.214 95.2526C104.173 95.0495 104.178 94.2675 104.263 94.0933C104.426 93.7569 105.912 93.425 106.461 92.69C107.011 91.955 107.179 89.9411 106.354 89.3591C105.381 88.6757 101.575 89.3697 101.125 88.9515V88.953Z" fill="white"/>
<path d="M35.5911 88.9742H31.729C31.3634 88.9742 31.4493 87.7225 31.579 87.4861H38.5517C38.8651 87.4861 38.8668 88.5726 38.7522 88.7893C38.5753 89.1258 37.9198 88.8833 37.5963 89.0197C37.4193 89.1197 37.2525 89.8562 37.2256 90.0714C37.0267 91.6141 37.4177 93.4992 37.202 94.9813C37.1834 95.1041 37.0739 95.395 36.9458 95.395H35.4411C35.2979 95.3132 35.3029 95.2101 35.2861 95.0737C35.1378 93.8963 35.1715 91.064 35.2861 89.8547C35.3181 89.5167 35.4125 89.2637 35.5911 88.9742Z" fill="white"/>
<path d="M53.0108 87.4997C55.3783 87.6104 59.205 86.7678 60.1419 89.5122C60.4587 90.4411 60.5193 93.963 60.3744 94.9798C60.3559 95.1101 60.3508 95.2207 60.2295 95.3102C60.0559 95.4374 58.4939 95.539 58.3844 95.1435C58.2159 93.6675 58.5411 91.9566 58.3642 90.5093C58.0777 88.1544 54.6251 89.244 52.9401 88.9333L52.8895 87.5725L53.0108 87.4982V87.4997Z" fill="white"/>
<path d="M7.60113 90.6033C7.45959 89.5531 6.7384 89.0591 5.64819 88.9712C4.95733 88.9151 2.59155 89.1121 2.18378 88.9288C1.88721 88.7954 1.83835 87.6194 2.25455 87.5043C4.16031 87.6104 7.38544 86.9693 8.74694 88.5166C8.97274 88.7742 9.50857 89.7501 9.50857 90.0441V95.2541L9.35861 95.3935H7.75278L7.60281 95.2541C7.46127 93.7917 7.7949 92.0263 7.60281 90.6018L7.60113 90.6033Z" fill="white"/>
<path d="M47.43 90.6033C47.2885 89.5531 46.5673 89.0591 45.4771 88.9712C44.7862 88.9151 42.4204 89.1121 42.0127 88.9288C41.7161 88.7954 41.6672 87.6194 42.0834 87.5043C43.9892 87.6104 47.2143 86.9693 48.5758 88.5166C48.8016 88.7742 49.3375 89.7501 49.3375 90.0441V95.2541L49.1875 95.3935H47.5817L47.4317 95.2541C47.2902 93.7917 47.6238 92.0263 47.4317 90.6018L47.43 90.6033Z" fill="white"/>
<path d="M91.2356 87.5012C91.5035 87.4179 93.7041 87.4527 94.1321 87.4831C95.5341 87.5785 96.8433 88.0225 97.3354 89.35C97.6791 90.2775 97.7398 93.9478 97.5932 94.9813C97.5746 95.1116 97.5696 95.2223 97.4483 95.3117C97.2747 95.439 95.7127 95.5405 95.6032 95.145C95.4346 93.669 95.7599 91.9581 95.5829 90.5108C95.4835 89.6895 94.8719 89.1227 94.0041 88.9985C93.4278 88.9151 91.4546 89.0879 91.1682 88.9303C90.8817 88.7727 90.8615 87.6194 91.2356 87.5028V87.5012Z" fill="white"/>
<path d="M26.8627 90.5093C26.561 88.4347 24.1835 89.1621 22.6939 88.9788C21.9778 88.8909 22.1513 87.6043 22.5187 87.5043C22.886 87.4043 25.0142 87.4497 25.5062 87.4876C26.4768 87.5603 27.572 87.9013 28.1669 88.6499C28.337 88.8636 28.7684 89.7319 28.7684 89.9517V95.2556L28.6184 95.395H27.0126L26.8627 95.2556V90.5108V90.5093Z" fill="white"/>
<path d="M101.101 98C100.869 95.6193 101.069 93.184 100.997 90.7851C101.017 90.4139 101.214 90.3957 101.548 90.3654C102.023 90.3229 102.997 90.2244 103.002 90.7958C102.818 92.9067 103.27 95.4299 103.011 97.4908C102.984 97.7 102.936 97.8591 102.758 98H101.103H101.101Z" fill="white"/>
<path d="M2.25456 90.3896C2.55786 90.3063 3.8587 90.2729 3.96991 90.6215C3.86376 91.9687 4.18222 93.678 3.99519 94.9798C3.96991 95.1616 3.93621 95.3162 3.71884 95.3753C3.41554 95.4587 2.1147 95.492 2.00349 95.1435C2.10965 93.7963 1.79118 92.0869 1.97821 90.7851C2.00349 90.6033 2.03719 90.4487 2.25456 90.3896Z" fill="white"/>
<path d="M42.0818 90.3896C42.3851 90.3063 43.6859 90.2729 43.7971 90.6215C43.691 91.9687 44.0094 93.678 43.8224 94.9798C43.7971 95.1616 43.7634 95.3162 43.5461 95.3753C43.2427 95.4587 41.9419 95.492 41.8307 95.1435C41.9369 93.7963 41.6184 92.0869 41.8054 90.7851C41.8307 90.6033 41.8644 90.4487 42.0818 90.3896Z" fill="white"/>
<path d="M52.9974 90.3699H54.6015L54.7532 90.5093V95.2556L54.6015 95.395H52.9974L52.8474 95.2556V90.5093L52.9974 90.3699Z" fill="white"/>
<path d="M80.5862 87.4861H82.2915L82.4414 87.6255V91.999L82.2915 92.1384H80.5862L80.4346 91.999V87.6255L80.5862 87.4861Z" fill="white"/>
<path d="M86.0036 87.4861H87.7088L87.8588 87.6255V91.999L87.7088 92.1384H86.0036L85.8519 91.999V87.6255L86.0036 87.4861Z" fill="white"/>
</g>
<defs>
<clipPath id="clip0_49_2535">
<rect width="110" height="98" fill="white"/>
</clipPath>
</defs>
</svg>
